<svg style="animation-delay: 0s; animation-direction: normal; animation-duration: 0s; animation-fill-mode: none; animation-iteration-count: 1; animation-name: none; animation-play-state: running; animation-timing-function: ease; background-attachment: scroll; background-blend-mode: normal; background-clip: border-box; background-color: rgba(0, 0, 0, 0); background-image: none; background-origin: padding-box; background-position: 0% 0%; background-repeat: repeat; background-size: auto; border-bottom-color: rgb(255, 255, 255); border-bottom-left-radius: 0px; border-bottom-right-radius: 0px; border-bottom-style: none; border-bottom-width: 0px; border-collapse: separate; border-image-outset: 0px; border-image-repeat: stretch; border-image-slice: 100%; border-image-source: none; border-image-width: 1; border-left-color: rgb(255, 255, 255); border-left-style: none; border-left-width: 0px; border-right-color: rgb(255, 255, 255); border-right-style: none; border-right-width: 0px; border-top-color: rgb(255, 255, 255); border-top-left-radius: 0px; border-top-right-radius: 0px; border-top-style: none; border-top-width: 0px; bottom: auto; box-shadow: none; box-sizing: border-box; break-after: auto; break-before: auto; break-inside: auto; caption-side: top; clear: none; clip: auto; color: rgb(255, 255, 255); content: normal; cursor: pointer; direction: ltr; display: block; empty-cells: show; float: none; font-family: Circular, PingFang-SC, &quot;Hiragino Sans GB&quot;, 微软雅黑, &quot;Microsoft YaHei&quot;, &quot;Heiti SC&quot;; font-kerning: auto; font-optical-sizing: auto; font-size: 34px; font-stretch: 100%; font-style: normal; font-variant: normal; font-variant-ligatures: normal; font-variant-caps: normal; font-variant-numeric: normal; font-variant-east-asian: normal; font-weight: 600; height: 34px; image-orientation: from-image; image-rendering: auto; isolation: auto; justify-items: normal; justify-self: auto; left: auto; letter-spacing: normal; line-height: 48.62px; list-style-image: none; list-style-position: outside; list-style-type: disc; margin-bottom: 0px; margin-left: 0px; margin-right: 0px; margin-top: 0px; max-height: none; max-width: none; min-height: 0px; min-width: 0px; mix-blend-mode: normal; object-fit: fill; object-position: 50% 50%; offset-distance: 0px; offset-path: none; offset-rotate: auto 0deg; opacity: 1; orphans: 2; outline-color: rgb(255, 255, 255); outline-offset: 0px; outline-style: none; outline-width: 0px; overflow-anchor: auto; overflow-wrap: normal; overflow-x: hidden; overflow-y: hidden; padding-bottom: 0px; padding-left: 0px; padding-right: 0px; padding-top: 0px; pointer-events: auto; position: static; resize: none; right: auto; scroll-behavior: auto; speak: normal; table-layout: auto; tab-size: 8; text-align: center; text-align-last: auto; text-decoration: none solid rgb(255, 255, 255); text-decoration-line: none; text-decoration-style: solid; text-decoration-color: rgb(255, 255, 255); text-decoration-skip-ink: auto; text-underline-position: auto; text-indent: 0px; text-rendering: auto; text-shadow: none; text-size-adjust: 100%; text-overflow: clip; text-transform: none; top: auto; touch-action: auto; transition-delay: 0s; transition-duration: 0s; transition-property: all; transition-timing-function: ease; unicode-bidi: normal; vertical-align: baseline; visibility: visible; white-space: nowrap; widows: 2; width: 34px; will-change: auto; word-break: normal; word-spacing: 0px; z-index: auto; zoom: 1; -webkit-appearance: none; backface-visibility: visible; -webkit-border-horizontal-spacing: 0px; -webkit-border-image: none; -webkit-border-vertical-spacing: 0px; -webkit-box-align: stretch; -webkit-box-decoration-break: slice; -webkit-box-direction: normal; -webkit-box-flex: 0; -webkit-box-ordinal-group: 1; -webkit-box-orient: horizontal; -webkit-box-pack: start; -webkit-box-reflect: none; column-count: auto; column-gap: normal; column-rule-color: rgb(255, 255, 255); column-rule-style: none; column-rule-width: 0px; column-span: none; column-width: auto; backdrop-filter: none; align-content: normal; align-items: normal; align-self: auto; flex-basis: auto; flex-grow: 0; flex-shrink: 1; flex-direction: row; flex-wrap: nowrap; justify-content: normal; -webkit-font-smoothing: antialiased; grid-auto-columns: auto; grid-auto-flow: row; grid-auto-rows: auto; grid-column-end: auto; grid-column-start: auto; grid-template-areas: none; grid-template-columns: none; grid-template-rows: none; grid-row-end: auto; grid-row-start: auto; row-gap: normal; -webkit-highlight: none; hyphens: manual; -webkit-hyphenate-character: auto; -webkit-line-break: auto; -webkit-line-clamp: none; -webkit-locale: &quot;zh&quot;; -webkit-mask-box-image: none; -webkit-mask-box-image-outset: 0px; -webkit-mask-box-image-repeat: stretch; -webkit-mask-box-image-slice: 0 fill; -webkit-mask-box-image-source: none; -webkit-mask-box-image-width: auto; -webkit-mask-clip: border-box; -webkit-mask-composite: source-over; -webkit-mask-image: none; -webkit-mask-origin: border-box; -webkit-mask-position: 0% 0%; -webkit-mask-repeat: repeat; -webkit-mask-size: auto; order: 0; perspective: none; perspective-origin: 17px 17px; -webkit-print-color-adjust: economy; -webkit-rtl-ordering: logical; shape-outside: none; shape-image-threshold: 0; shape-margin: 0px; -webkit-tap-highlight-color: rgba(0, 0, 0, 0.18); -webkit-text-combine: none; -webkit-text-decorations-in-effect: none; -webkit-text-emphasis-color: rgb(255, 255, 255); -webkit-text-emphasis-position: over right; -webkit-text-emphasis-style: none; -webkit-text-fill-color: rgb(255, 255, 255); -webkit-text-orientation: vertical-right; -webkit-text-security: none; -webkit-text-stroke-color: rgb(255, 255, 255); -webkit-text-stroke-width: 0px; transform: none; transform-origin: 17px 17px; transform-style: flat; -webkit-user-drag: auto; -webkit-user-modify: read-only; user-select: auto; -webkit-writing-mode: horizontal-tb; -webkit-app-region: none; buffered-rendering: auto; clip-path: none; clip-rule: nonzero; mask: none; filter: none; flood-color: rgb(0, 0, 0); flood-opacity: 1; lighting-color: rgb(255, 255, 255); stop-color: rgb(0, 0, 0); stop-opacity: 1; color-interpolation: srgb; color-interpolation-filters: linearrgb; color-rendering: auto; fill: rgb(255, 255, 255); fill-opacity: 1; fill-rule: nonzero; marker-end: none; marker-mid: none; marker-start: none; mask-type: luminance; shape-rendering: auto; stroke: none; stroke-dasharray: none; stroke-dashoffset: 0px; stroke-linecap: butt; stroke-linejoin: miter; stroke-miterlimit: 4; stroke-opacity: 1; stroke-width: 1px; alignment-baseline: auto; baseline-shift: 0px; dominant-baseline: auto; text-anchor: start; writing-mode: horizontal-tb; vector-effect: none; paint-order: normal; d: none; cx: 0px; cy: 0px; x: 0px; y: 0px; r: 0px; rx: auto; ry: auto; caret-color: rgb(255, 255, 255); line-break: auto;" version="1.1" xmlns="http://www.w3.org/2000/svg" xmlns:xlink="http://www.w3.org/1999/xlink"><style  type="text/css"></style><svg viewBox="0 0 1000 1000" role="presentation" aria-hidden="true" focusable="false" style="height:1em;width:1em;display:block;fill:currentColor"><path d="m499.3 736.7c-51-64-81-120.1-91-168.1-10-39-6-70 11-93 18-27 45-40 80-40s62 13 80 40c17 23 21 54 11 93-11 49-41 105-91 168.1zm362.2 43c-7 47-39 86-83 105-85 37-169.1-22-241.1-102 119.1-149.1 141.1-265.1 90-340.2-30-43-73-64-128.1-64-111 0-172.1 94-148.1 203.1 14 59 51 126.1 110 201.1-37 41-72 70-103 88-24 13-47 21-69 23-101 15-180.1-83-144.1-184.1 5-13 15-37 32-74l1-2c55-120.1 122.1-256.1 199.1-407.2l2-5 22-42c17-31 24-45 51-62 13-8 29-12 47-12 36 0 64 21 76 38 6 9 13 21 22 36l21 41 3 6c77 151.1 144.1 287.1 199.1 407.2l1 1 20 46 12 29c9.2 23.1 11.2 46.1 8.2 70.1zm46-90.1c-7-22-19-48-34-79v-1c-71-151.1-137.1-287.1-200.1-409.2l-4-6c-45-92-77-147.1-170.1-147.1-92 0-131.1 64-171.1 147.1l-3 6c-63 122.1-129.1 258.1-200.1 409.2v2l-21 46c-8 19-12 29-13 32-51 140.1 54 263.1 181.1 263.1 1 0 5 0 10-1h14c66-8 134.1-50 203.1-125.1 69 75 137.1 117.1 203.1 125.1h14c5 1 9 1 10 1 127.1.1 232.1-123 181.1-263.1z"/></svg></svg>